# xmcd
#
# Track frame offsets: 
#        150
#        11203
#        24192
#        35760
#        49412
#        66217
#        82345
#        93545
#        107151
#        127883
#        137941
#
# Disc length: 1999 seconds
#
# Revision: 0
# Processed by: cddbd v1.5.2PL0 Copyright (c) Steve Scherf et al.
# Submitted via: ExactAudioCopyFreeDBPlugin 1.0
#
DISCID=9d07cd0b
DTITLE=The Country Gospel Family - Travelling on...
DYEAR=2001
DGENRE=Country
TTITLE0=Travelling on
TTITLE1=This old sinner testifies
TTITLE2=I'm rolling through this unfriendly world
TTITLE3=Cold Jordan
TTITLE4=When God dips His love in my Heart
TTITLE5=I just steal away and pray
TTITLE6=Reaping in the spirit
TTITLE7=I just feel like something good is about to happen
TTITLE8=Love can build a bridge
TTITLE9=Swing down sweet chariot
TTITLE10=Walk them golden stairs
EXTD=
EXTT0=
EXTT1=
EXTT2=
EXTT3=
EXTT4=
EXTT5=
EXTT6=
EXTT7=
EXTT8=
EXTT9=
EXTT10=
PLAYORDER=
